Coordinates
version=1
nRows=23
nColumns=23
inDegrees=yes

Units are S.I. units (second, meters, Newtons, ...)
If the header above contains a line with 'inDegrees', this indicates whether rotational values are in degrees (yes) or radians (no).

endheader
time	pelvis_tilt	pelvis_list	pelvis_rotation	pelvis_tx	pelvis_ty	pelvis_tz	hip_flexion_r	hip_adduction_r	hip_rotation_r	knee_angle_r	knee_angle_r_beta	ankle_angle_r	subtalar_angle_r	mtp_angle_r	hip_flexion_l	hip_adduction_l	hip_rotation_l	knee_angle_l	knee_angle_l_beta	ankle_angle_l	subtalar_angle_l	mtp_angle_l
     15.00000000	     -7.07837199	      8.20016436	      8.36609266	      2.41559776	      0.97178597	      1.02572590	     -9.25001188	     -7.96320734	     -8.33950553	     76.10287279	      1.32824570	    -19.49481220	    -17.98710106	      0.00000000	     33.34486674	     12.92276016	     -4.21752105	     19.19617964	      0.33503654	      1.44246312	      0.70665316	      0.00000000
     15.00666667	     -7.12901355	      7.98723416	      9.10522876	      2.41471708	      0.96776445	      1.02458315	     -7.53747548	     -8.22202040	     -9.27250444	     80.22432497	      1.40017861	    -19.02925054	    -19.09007470	      0.00000000	     33.68910992	     12.83800137	     -4.29859554	     22.35760911	      0.39021389	      1.44648249	      0.34753679	      0.00000000
     15.01333333	     -6.94039626	      7.98038972	      9.82189463	      2.41384385	      0.96390396	      1.02343375	     -6.08691508	     -8.75395078	    -10.19006701	     84.13423046	      1.46841934	    -18.48638620	    -19.92534746	      0.00000000	     33.67833944	     12.96617615	     -4.17584620	     25.65946081	      0.44784208	      1.70640503	     -0.34194612	      0.00000000
     15.02000000	     -6.89734270	      7.91291872	     10.54117000	      2.41272810	      0.95973290	      1.02230531	     -4.34514743	     -9.27796474	    -10.94984899	     87.91546087	      1.53441426	    -17.83062005	    -20.49666748	      0.00000000	     33.81649046	     13.11569829	     -3.77735563	     29.16222641	      0.50897687	      2.34721545	     -1.24078989	      0.00000000
     15.02666667	     -6.93657554	      7.80288673	     11.22764926	      2.41144112	      0.95549804	      1.02120695	     -2.37890393	     -9.83298011	    -11.55993223	     91.52137513	      1.59734933	    -17.07360624	    -20.72573542	      0.00000000	     33.96894808	     13.30858987	     -3.12458517	     32.69840664	      0.57069486	      3.47960668	     -2.26524255	      0.00000000
     15.03333333	     -7.11693576	      7.65321497	     11.84327922	      2.40990771	      0.95122045	      1.02019111	     -0.08308058	    -10.42983680	    -11.95487839	     94.95899744	      1.65734716	    -16.22307928	    -20.68837622	      0.00000000	     34.15251249	     13.51525443	     -2.34731698	     36.11895803	      0.63039474	      5.00802292	     -3.30865584	      0.00000000
     15.04000000	     -7.35556204	      7.47834610	     12.37488942	      2.40821101	      0.94710368	      1.01922991	      2.44834801	    -11.06815993	    -12.14533913	     98.17523387	      1.71348107	    -15.29390506	    -20.28512382	      0.00000000	     34.20331486	     13.74365317	     -1.42402603	     39.26832613	      0.68536158	      6.87084395	     -4.30129931	      0.00000000
     15.04666667	     -7.59742611	      7.31806011	     12.79738207	      2.40638836	      0.94334668	      1.01840942	      5.15588515	    -11.74372079	    -12.09522968	    101.12691013	      1.76499754	    -14.30003681	    -19.53315202	      0.00000000	     34.00272083	     13.98482677	     -0.40265581	     42.01772445	      0.73334764	      8.98367581	     -5.17892827	      0.00000000
     15.05333333	     -7.88166352	      7.16676105	     13.05809085	      2.40447217	      0.93997668	      1.01773851	      8.11238574	    -12.45287160	    -11.76168211	    103.79811756	      1.81161891	    -13.22129330	    -18.44589416	      0.00000000	     33.56472629	     14.16793622	      0.58715351	     44.29384055	      0.77307336	     11.19006366	     -5.93917748	      0.00000000
     15.06000000	     -8.02640865	      7.04595710	     13.20710199	      2.40260046	      0.93726400	      1.01719177	     11.05618912	    -13.14187761	    -11.23868431	    106.09611626	      1.85172655	    -12.14549313	    -17.08716814	      0.00000000	     32.65306076	     14.29797189	      1.61739518	     46.05124390	      0.80374583	     13.50894482	     -6.49658079	      0.00000000
     15.06666667	     -8.21405172	      6.93390024	     13.14364631	      2.40075707	      0.93503909	      1.01686076	     14.25642345	    -13.78359024	    -10.40144226	    108.06279060	      1.88605149	    -10.95052951	    -15.34135282	      0.00000000	     31.49810945	     14.29973715	      2.49789348	     47.28747408	      0.82532212	     15.73506522	     -6.87920349	      0.00000000
     15.07333333	     -8.30941445	      6.84225315	     12.92350540	      2.39908738	      0.93349063	      1.01678024	     17.48040761	    -14.30409657	     -9.36255832	    109.60812176	      1.91302261	     -9.76357670	    -13.40542886	      0.00000000	     29.94100422	     14.15274842	      3.22910366	     47.99339952	      0.83764284	     17.81861952	     -7.06033958	      0.00000000
     15.08000000	     -8.13466869	      6.74138508	     12.48965132	      2.39766872	      0.93284045	      1.01699859	     20.49459720	    -14.58595804	     -8.16562293	    110.65960222	      1.93137441	     -8.79140879	    -11.79841714	      0.00000000	     27.83505661	     13.80305393	      3.81968939	     48.23756374	      0.84190431	     19.85989568	     -7.21845792	      0.00000000
     15.08666667	     -8.14181468	      6.63001463	     11.94204269	      2.39652828	      0.93261127	      1.01734173	     23.77368169	    -14.73964539	     -6.84583082	    111.33176671	      1.94310589	     -7.44642822	     -9.39248490	      0.00000000	     25.64869869	     13.32564104	      4.11883193	     47.93440408	      0.83661318	     21.47202618	     -6.94233396	      0.00000000
     15.09333333	     -7.96994192	      6.45152024	     11.27362854	      2.39573874	      0.93316109	      1.01787271	     26.80265818	    -14.61831493	     -5.57871425	    111.48867340	      1.94584443	     -6.27757539	     -7.33711006	      0.00000000	     23.06700511	     12.65301297	      4.26656560	     47.22640291	      0.82425622	     22.85534213	     -6.50049562	      0.00000000
     15.10000000	     -7.70199170	      6.19485958	     10.43603099	      2.39534544	      0.93437051	      1.01867070	     29.64186487	    -14.16647835	     -4.33855919	    111.16413881	      1.94018023	     -5.18265822	     -5.58859227	      0.00000000	     20.19109709	     11.77836354	      4.16635059	     46.09400827	      0.80449221	     23.85975886	     -6.04942173	      0.00000000
     15.10666667	     -7.41257828	      5.81490883	      9.51130159	      2.39527052	      0.93613779	      1.01960806	     32.31304561	    -13.39979888	     -3.23678644	    110.37236694	      1.92636121	     -4.17160447	     -4.19440748	      0.00000000	     17.15059632	     10.75579389	      3.94297346	     44.61654157	      0.77870555	     24.47437887	     -5.57747601	      0.00000000
     15.11333333	     -7.17691950	      5.32676949	      8.58463568	      2.39562109	      0.93836669	      1.02056196	     34.79763126	    -12.42190686	     -2.37717717	    109.12633128	      1.90461378	     -3.18596988	     -3.09116509	      0.00000000	     14.01463081	      9.63962521	      3.60194709	     42.77627397	      0.74658682	     24.58125813	     -4.96827100	      0.00000000
     15.12000000	     -6.39975131	      4.81545217	      7.68935747	      2.39666959	      0.94177850	      1.02146930	     36.28698760	    -11.40432383	     -1.91140673	    107.35237311	      1.87365237	     -2.18221018	     -2.20101832	      0.00000000	     10.08880743	      8.37328730	      2.99445894	     40.51743152	      0.70716258	     24.40269477	     -3.59264980	      0.00000000
     15.12666667	     -5.98388462	      4.12555993	      6.76956928	      2.39791234	      0.94511858	      1.02248232	     37.97378001	    -10.10100315	     -1.58100371	    105.21688440	      1.83638106	     -1.37346439	     -2.02465967	      0.00000000	      6.50186261	      7.06462428	      2.34006717	     38.02284776	      0.66362388	     23.56741303	     -2.66703223	      0.00000000
     15.13333333	     -5.67943859	      3.29179460	      5.93680491	      2.39950657	      0.94866058	      1.02341542	     39.47752124	     -8.67248139	     -1.53923631	    102.69580253	      1.79237988	     -0.63540746	     -2.28561903	      0.00000000	      2.98363190	      5.68284971	      1.60373974	     35.32071570	      0.61646278	     22.09306405	     -1.78080044	      0.00000000
     15.14000000	     -5.25611339	      2.35415476	      5.27638437	      2.40148984	      0.95269367	      1.02414639	     40.49251604	     -7.25837693	     -1.85093350	     99.76650540	      1.74125400	      0.00095649	     -3.02674490	      0.00000000	     -0.73592738	      4.27779676	      0.96065036	     32.36883479	      0.56494274	     20.10215315	     -0.82598523	      0.00000000
     15.14666667	     -5.03771704	      1.34016206	      4.72921536	      2.40364277	      0.95661595	      1.02475058	     41.48312730	     -5.85604351	     -2.36736344	     96.52994633	      1.68476539	      0.54798290	     -4.13211497	      0.00000000	     -4.21499039	      2.89127271	      0.31269844	     29.31855085	      0.51170524	     17.44374260	     -0.04739328	      0.00000000
